<svg xmlns="http://www.w3.org/2000/svg" width="113.522" height="113.522" viewBox="0 0 113.522 113.522">
  <g id="Group_3452" data-name="Group 3452" transform="translate(-4456.027 -5256.909)">
    <g id="Group_3435" data-name="Group 3435">
      <circle id="Ellipse_14" data-name="Ellipse 14" cx="56.761" cy="56.761" r="56.761" transform="translate(4456.027 5256.909)" fill="#990019"/>
      <g id="Group_3429" data-name="Group 3429" transform="translate(208.547 392.372)">
        <path id="path1253" d="M19.021,178.441v13.227C34.357,191,39.206,198.6,39.206,198.6c-1.573-18.854-20.185-20.156-20.185-20.156ZM39.206,198.6s4.849-7.6,20.185-6.929V178.441s-18.612,1.3-20.185,20.156Zm.014-.015s7.6,4.849,6.929,20.185H59.377s-1.3-18.612-20.156-20.185Zm-.029,0C3.22,200.1,5.971,237.813,5.971,237.813H19.692C16.912,204.416,39.192,198.583,39.192,198.583Z" transform="translate(4266.916 4718.026)" fill="#fff"/>
        <path id="path1253-2" data-name="path1253" d="M24.7,161.533a9.473,9.473,0,0,0-9.473,9.474v27.552a40.458,40.458,0,0,1,4.888-5.172V171.5a5.083,5.083,0,0,1,5.083-5.083H62.5a5.083,5.083,0,0,1,5.083,5.083v37.3a5.083,5.083,0,0,1-5.083,5.083H29.13v4.888H63a9.473,9.473,0,0,0,9.473-9.474v-38.3A9.474,9.474,0,0,0,63,161.533Z" transform="translate(4262.271 4726.467)" fill="#ff7c00"/>
      </g>
    </g>
  </g>
</svg>
