<svg xmlns="http://www.w3.org/2000/svg" width="113.522" height="113.522" viewBox="0 0 113.522 113.522">
  <g id="Group_3442" data-name="Group 3442" transform="translate(-4467.027 -3327.653)">
    <circle id="Ellipse_6" data-name="Ellipse 6" cx="56.761" cy="56.761" r="56.761" transform="translate(4467.027 3327.653)" fill="#dd0332"/>
    <g id="Group_3419" data-name="Group 3419" transform="translate(4491.353 3351.98)">
      <path id="Path_1613" data-name="Path 1613" d="M63.907,113.073H59.1V88.46h4.807Z" transform="translate(-34.414 -45.226)" fill="#fff"/>
      <path id="Path_1614" data-name="Path 1614" d="M80.667,108.549H72.8V74.77h7.867Z" transform="translate(-38.941 -40.702)" fill="#fff"/>
      <path id="Path_1615" data-name="Path 1615" d="M42.611,34.428s7.927-7.753,21.3-5.2A22.811,22.811,0,0,1,74.3,34.147s.67.629,1.185.114c0,0,.656-.516-.074-1.279a23.8,23.8,0,0,0-11.53-7.753,30.358,30.358,0,0,0-21.3,1.319A22.288,22.288,0,0,0,32.247,36.8a60.023,60.023,0,0,0-9.193,3.91s-1.165.462-.723,1.366c0,0,.375.649,1.393.167,0,0,3.656-1.259,7.184-2.049a27.183,27.183,0,0,0,7.526,28.014,1.02,1.02,0,0,0,1.252.2.8.8,0,0,0,.167-1.085,31.273,31.273,0,0,1-4.071-10.686c-.951-5.115-.5-12.179,3.053-17.776,0,0,13.525-1.888,25.054,2.457,0,0,19.584,6.387,14.65,18.238,0,0-1.433,4.118-6.836,7.84,0,0-.9.529-.415,1.286a1.057,1.057,0,0,0,1.332.214s8.276-2.692,11.851-9.347c0,0,7.251-11.088-9.842-20.14a47.1,47.1,0,0,0-10.746-3.857c-.007-.007-10.887-2.7-21.271-1.132" transform="translate(-22.231 -23.888)" fill="#fff"/>
    </g>
  </g>
</svg>
