<svg xmlns="http://www.w3.org/2000/svg" width="113.522" height="113.522" viewBox="0 0 113.522 113.522">
  <g id="Group_3438" data-name="Group 3438" transform="translate(-4467 -4743)">
    <circle id="Ellipse_18" data-name="Ellipse 18" cx="56.761" cy="56.761" r="56.761" transform="translate(4467 4743)" fill="#8b05bf"/>
    <path id="path1082" d="M15.89,178.371c-4.306,0-6.982,2.061-6.982,5.4v2.789H6.5c-3.1,0-6.5,3.415-6.5,6.525V219a1.955,1.955,0,0,0,1.953,1.953h6.3A1.962,1.962,0,0,0,10.2,219v-.064c0-.028,0-.058,0-.088s0-.058,0-.086,0-.054,0-.062h0c0-2.741,0-23.306,0-30.855h5.723a5.724,5.724,0,0,1,5.717,5.718V219a1.955,1.955,0,0,0,1.953,1.953h6.3A1.955,1.955,0,0,0,31.849,219c0-11.381,0-18.622-.007-23.082l0-4.248c0-8.24-9.289-13.3-15.949-13.3Zm0,1.294c6.12,0,14.656,4.567,14.656,12.006l0,4.249c0,4.461.009,11.7.007,23.082a.66.66,0,0,1-.66.659h-6.3a.659.659,0,0,1-.659-.659V193.567a7.02,7.02,0,0,0-7.011-7.012H10.2v-2.8c0-3.689,3.978-4.087,5.688-4.087Zm21.716,6.843a1.955,1.955,0,0,0-1.953,1.953c0,11.381,0,18.621.007,23.082l0,4.249c0,8.24,9.289,13.3,15.949,13.3h0c4.306,0,6.981-2.062,6.981-5.4v-2.789H61c3.1,0,6.5-3.416,6.5-6.525V188.461a1.955,1.955,0,0,0-1.953-1.953h-6.3A1.962,1.962,0,0,0,57.3,188.46h0v.062c0,.028,0,.058,0,.088s0,.058,0,.085,0,.053,0,.063h0c0,2.741,0,23.306,0,30.855H51.577a5.724,5.724,0,0,1-5.717-5.718V188.461a1.956,1.956,0,0,0-1.953-1.953Zm0,1.294h6.3a.66.66,0,0,1,.659.66V213.9a7.019,7.019,0,0,0,7.011,7.012H57.3v2.8c0,3.689-3.977,4.087-5.688,4.087-6.12,0-14.656-4.568-14.656-12.006l0-4.249c0-4.46-.009-11.7-.007-23.081a.66.66,0,0,1,.66-.66Zm21.647,0h6.3a.66.66,0,0,1,.659.66v25.922c0,2.4-2.821,5.231-5.2,5.231H58.593c0-11.864,0-30.985,0-31.159a.662.662,0,0,1,.66-.653ZM6.5,187.848H8.908c0,11.864,0,30.985,0,31.159a.661.661,0,0,1-.659.653h-6.3A.659.659,0,0,1,1.294,219V193.08c0-2.4,2.821-5.231,5.2-5.231Z" transform="translate(4490 4595.629)" fill="#fff"/>
  </g>
</svg>
