<svg xmlns="http://www.w3.org/2000/svg" width="113.522" height="113.522" viewBox="0 0 113.522 113.522">
  <g id="Group_3443" data-name="Group 3443" transform="translate(-4467.027 -3530.371)">
    <circle id="Ellipse_7" data-name="Ellipse 7" cx="56.761" cy="56.761" r="56.761" transform="translate(4467.027 3530.371)" fill="#e30613"/>
    <path id="Path_4561" data-name="Path 4561" d="M20.77,29.149C8.534,31.891,0,38.051,0,45.2c0,9.7,15.714,17.566,35.084,17.566S70.167,54.892,70.167,45.2c0-7.24-8.759-13.459-21.269-16.153,1.234-6.967-4.664-12.4-8.462-17.886C37.991,7.632,35.416,4.107,35.772,0c-7.56,11.667,6.706,19.844,9.993,29.79A10.355,10.355,0,0,1,43.119,40.7c-1.567,1.567-.522-3.537-1.84-5.507C36.923,28.722,31.8,23.82,28.39,17.138a6.647,6.647,0,0,1-.9-4.724c-2.421,4.439-2.86,9.388-.4,13.637,4.831,8.367,17.661,20.521,7.477,26.977-1.365.866-.237-3.454-1.555-5.424-4.035-6.065-9.4-11.964-12.237-18.456Z" transform="translate(4487.299 3554.806)" fill="#fff" fill-rule="evenodd"/>
  </g>
</svg>
