<svg xmlns="http://www.w3.org/2000/svg" width="113.522" height="113.522" viewBox="0 0 113.522 113.522">
  <g id="Group_3441" data-name="Group 3441" transform="translate(-4467.027 -3128.989)">
    <circle id="Ellipse_5" data-name="Ellipse 5" cx="56.761" cy="56.761" r="56.761" transform="translate(4467.027 3128.989)" fill="#312783"/>
    <g id="Group_3420" data-name="Group 3420" transform="translate(4487.296 3169.534)">
      <path id="Path_1617" data-name="Path 1617" d="M133.457,80.16h-6.184L124.725,85h4.335l4.4-4.845Zm4.111,7.874h-6.024v13c0,3.985-2.674,5.131-4.655,5.131-1.878,0-3.951-.7-3.922-4.175V88.034h-6.024l-.034,14.82c0,5.738,3.281,8.286,7.805,8.286a7.524,7.524,0,0,0,6.98-3.762h.063v3.155h5.8v-22.5Z" transform="translate(-68.099 -80.126)" fill="#ffed00" fill-rule="evenodd"/>
      <path id="Path_1618" data-name="Path 1618" d="M85.914,101.693c0-5.578-5.863-6.563-9.116-6.563-4.684,0-9.562.99-10.3,7.874h5.829c.189-1.306.733-3.121,3.728-3.121,1.563,0,3.985.126,3.985,2.612,0,1.277-1.179,1.655-2.136,1.786l-5.417.8c-3.854.544-6.723,2.806-6.723,7.2,0,4.655,3.568,6.563,6.98,6.563a9.356,9.356,0,0,0,7.426-3.252,9.728,9.728,0,0,0,.573,2.646l5.194-.034c0-2.485-.034-4.3-.034-4.335V101.693Z" transform="translate(-41.782 -87.829)" fill="#ffed00" fill-rule="evenodd"/>
      <path id="Path_1619" data-name="Path 1619" d="M44.665,80.16H38.641V88H35.52v4.238h3.092v13.67c0,2.9.922,4.874,6.15,4.874h.8c.956,0,1.912-.063,2.835-.1v-4.5c-.413.034-.859.1-1.243.1-2.456,0-2.519-.51-2.519-1.849l.034-12.2h3.762V87.995H44.665V80.16Z" transform="translate(-26.215 -80.126)" fill="#ffed00" fill-rule="evenodd"/>
      <path id="Path_1620" data-name="Path 1620" d="M22.883,80.09h-6.5l-.029,30.373h6.5Z" transform="translate(-16.35 -80.09)" fill="#ffed00" fill-rule="evenodd"/>
      <path id="Path_1621" data-name="Path 1621" d="M86.472,123.048v-2.9c-.607.476-1.626.859-4.111,1.209-2.262.384-4.111.956-4.111,3.408a2.643,2.643,0,0,0,2.806,2.709c2.679,0,5.417-1.689,5.417-4.427Z" transform="translate(-48.204 -100.704)" fill="#312783" fill-rule="evenodd"/>
    </g>
  </g>
</svg>
