<svg xmlns="http://www.w3.org/2000/svg" width="113.522" height="113.522" viewBox="0 0 113.522 113.522">
  <g id="Group_3436" data-name="Group 3436" transform="translate(-4467.027 -5091.19)">
    <circle id="Ellipse_17" data-name="Ellipse 17" cx="56.761" cy="56.761" r="56.761" transform="translate(4467.027 5091.19)" fill="#00ace9"/>
    <path id="path4140" d="M23.706,166.861a14.964,14.964,0,0,0-5.729.793c3.93,5.32,6.968,9.736,10.453,14.6A4.1,4.1,0,0,1,29.1,184.9l-11.09,16.378a6.56,6.56,0,0,1-.89.141l-1.138.046-5.92-8.743-9.7.137,1.275.82,9.654,14.435a4.053,4.053,0,0,1,.683,2.641,2.587,2.587,0,0,1-.319,1.275L1.594,227.1l-1.366.091L0,227.74l21.858.137a1.043,1.043,0,0,0,.956-.637l10.471-16.531c.372-.87-.217-1.447-.544-2.049l-4.508-6.694,5.269-8.5c3.988,5.32,7.144,9.749,10.68,14.617a4.053,4.053,0,0,1,.683,2.641A2.583,2.583,0,0,1,44.546,212L34.482,227.069l-1.4.188-.228.547,21.858.137a1.043,1.043,0,0,0,.956-.638l10.51-16.627c.372-.87-.218-1.447-.544-2.049l-4.508-6.694c-3.5-4.7-3.557-4.7-6.421-8.963l-9.592-.229.046-.064,4.948-7.821c.367-.87-.215-1.447-.536-2.049l-4.443-6.695c-3.454-4.7-3.506-4.7-6.328-8.964l-11.578-.281c-1.134.042-2.322,0-3.512,0Z" transform="translate(4491 4948.087)" fill="#fff" fill-rule="evenodd"/>
  </g>
</svg>
