<svg xmlns="http://www.w3.org/2000/svg" width="113.522" height="113.522" viewBox="0 0 113.522 113.522">
  <g id="Group_3448" data-name="Group 3448" transform="translate(-4467.027 -4539.909)">
    <circle id="Ellipse_12" data-name="Ellipse 12" cx="56.761" cy="56.761" r="56.761" transform="translate(4467.027 4539.909)" fill="#151f48"/>
    <path id="Path_4563" data-name="Path 4563" d="M65.639,50.52a24.616,24.616,0,0,1-5.88,13.268C58.11,65.6,56.85,67.28,51.03,71.24c-7.564,4.19-14.26,6.982-18.157,10.01-3.9-3.028-10.593-5.821-18.16-10.01C8.9,67.28,7.637,65.6,5.984,63.789A24.636,24.636,0,0,1,.107,50.52,18.3,18.3,0,0,1,5.635,35.328c1.221-1.4.406-2.093-.174-3.2-1.042-1.979-1.28-2.849-3.028-6.283-.932-1.836-1.405-3.183-1.161-4.367.871-3.145,4.19-4.35,5.355-5.761.2-.252.628-.4.756-.642a1.242,1.242,0,0,0,.057-.872c0-.01-1.295-2.512-1.162-2.911.268-.8,4.656-3.2,8.264-4.656a96.776,96.776,0,0,1,10.652-3.2A22.526,22.526,0,0,0,32.873,0a22.535,22.535,0,0,0,7.681,3.435,96.743,96.743,0,0,1,10.65,3.2c3.61,1.454,8,3.851,8.266,4.656.133.4-1.16,2.9-1.165,2.911a1.236,1.236,0,0,0,.06.872c.125.247.549.39.757.642,1.164,1.411,4.481,2.616,5.354,5.761.244,1.183-.23,2.53-1.164,4.367-1.745,3.434-1.983,4.3-3.025,6.283-.582,1.108-1.4,1.8-.173,3.2A18.3,18.3,0,0,1,65.639,50.52Zm-2.1-1.281a17.93,17.93,0,0,0-5.351-12.978c-2.155-1.98-1.224-2.407-.525-3.724,1.048-1.979.869-1.969,2.619-5.647.792-1.663,2.211-4.014,1.688-5.588-.641-1.394-3.824-3.537-4.017-3.664a19.723,19.723,0,0,1-2.56-1.921c-.371-.612.06-.932.06-.932s1.359-2.191,1.162-2.563c-1.048-1.978-11-5.238-16.527-6.519a38.868,38.868,0,0,1-7.217-3.142A38.985,38.985,0,0,1,25.658,5.7c-5.531,1.28-15.483,4.542-16.529,6.519-.2.371,1.162,2.563,1.162,2.563s.431.321.06.932a19.588,19.588,0,0,1-2.563,1.921c-.19.128-3.374,2.27-4.017,3.664-.522,1.574.9,3.925,1.69,5.588,1.751,3.678,1.571,3.668,2.617,5.647.7,1.317,1.631,1.744-.523,3.724A17.932,17.932,0,0,0,2.2,49.239c.347,5.238,2.034,9.6,7.158,15.073,1.649,1.814,3.957,3.726,9.834,6.869,5.531,2.852,9.6,4.539,13.618,7.507,4.017-2.968,8.207-4.656,13.738-7.507,5.877-3.142,8.185-5.054,9.836-6.869,5.118-5.469,6.806-9.834,7.155-15.073Zm-4.305,1.454c-.523-.523-1.967-.108-2.145.174a9.112,9.112,0,0,0-3.147-4.64.874.874,0,0,1,.17-.539,16.452,16.452,0,0,0,2.04-.406c.58-.268.7,1.511,2.268,1.278,1.115-.165,1.108-1.338.465-1.222-.2-.062-.46.417-.7.466-.818.176-.932-1.048-.932-1.57a6.1,6.1,0,0,0,.113-2.68c-.435-1.235-1.825-1.915-2.443-2.326-.174-.116-.481-.837-.116-1.108.871-.639-.814-1.222-1.105.233-.16.8.165,1.015.116,1.457-.06.523-1.64,1.592-.349,2.563.7.523.912-.336.582-.759-.639-.815,2.268-2.037,2.387,1.048.045,1.281-2.067,1.861-2.533,2.037-3.55,0-6.429-3.4-6.429-7.594a7.747,7.747,0,0,1,4.187-7.132c.991-1.1,5.065-.928,4.892-2.676-.122-1.192-1.282-1.807-1.923-1.165-.29.582.7.643.641,1.222-.054.539-1.021.683-1.687.233a1.406,1.406,0,0,1-.525-1.164c-.233-2.327,4.425-4.014,4.425-4.014s-3.844-1.164-3.959-2.27c-.1-.928.349-1.048.758-.525.241.311.932-.35.114-1.105a1.288,1.288,0,0,0-1.861.932c-.29.989-3.9-3.377-4.367-4.656-.224-.62.008-2,.756-1.746.526.176.41.523.234.756a.534.534,0,0,0,.352.815,1.071,1.071,0,0,0,.989-1.1,1.7,1.7,0,0,0-3.318-.29c-.146.446-.526-.176-.815-.409-.644-.517-4.656-5.3-10.01-5.355-2.045-.022-1.108.49-2.1.409-.7-.06-1.162-1.048-1.455-1.4-.173.29-.756,1.338-1.454,1.4-.988.081-.048-.431-2.094-.409-5.357.06-9.366,4.838-10.01,5.355-.292.233-.672.855-.815.409a1.7,1.7,0,0,0-3.318.29,1.071,1.071,0,0,0,.988,1.1.533.533,0,0,0,.35-.815c-.176-.233-.29-.58.233-.756.75-.249.984,1.127.756,1.746-.466,1.278-4.073,5.645-4.363,4.656a1.29,1.29,0,0,0-1.864-.932c-.815.756-.125,1.416.116,1.105.406-.523.853-.4.759.525-.12,1.105-3.96,2.27-3.96,2.27a12.584,12.584,0,0,1,3.2,1.861,2.735,2.735,0,0,1,1.222,2.154,1.4,1.4,0,0,1-.523,1.164c-.669.45-1.633.306-1.687-.233-.06-.58.928-.639.639-1.222-.639-.642-1.8-.026-1.921,1.165-.173,1.746,3.9,1.57,4.889,2.676a7.742,7.742,0,0,1,4.19,7.132c0,4.193-2.879,7.594-6.429,7.594-.466-.176-2.582-.756-2.533-2.037.116-3.085,3.025-1.864,2.387-1.048-.33.423-.116,1.281.582.759,1.291-.97-.29-2.04-.349-2.563-.048-.441.276-.656.116-1.457-.29-1.454-1.98-.871-1.108-.233.367.271.06.991-.114,1.108-.618.412-2.009,1.092-2.445,2.326a6.136,6.136,0,0,0,.116,2.68c0,.523-.116,1.746-.932,1.57-.236-.048-.5-.529-.7-.466-.639-.116-.65,1.057.467,1.222,1.57.233,1.922-1.57,2.33-1.394a14.454,14.454,0,0,0,1.976.523.888.888,0,0,1,.174.539,9.089,9.089,0,0,0-3.147,4.64c-.179-.281-1.622-.7-2.145-.174a1.583,1.583,0,0,0-.409,1.574c.058.463,1.057.58.932-.352-.116-.871,1.048-.579,1.222.292a8.926,8.926,0,0,1-.06,2.33c.585,3.724,3.25,6.05,6.376,6.05a6.46,6.46,0,0,0,1.486-.16c.554-.131.87.859,1.336,1.673,0,0-1.921.756-1.687,2.211s1.57,2.213,2.559.932c.406-.522-.29-.582-1.046-.582-.574-.406-.517-1.108.871-1.4,1.689-.349,3.2,3.259,3.783,4.772s3.782,5.7,8.148,4.713c.29-.065,2.909,3.9,2.909,3.9s2.622-3.965,2.912-3.9c4.366.991,7.567-3.2,8.148-4.713s2.1-5.121,3.783-4.772c1.39.288,1.446.989.872,1.4-.756,0-1.452.06-1.046.582.986,1.281,2.326.526,2.559-.932S48.356,62.1,48.356,62.1c.466-.815.78-1.8,1.336-1.673a6.518,6.518,0,0,0,1.486.16,6.255,6.255,0,0,0,6.257-6.226,10.4,10.4,0,0,1,.06-2.154c.173-.871,1.338-1.164,1.222-.292-.125.932.871.815.932.352a1.6,1.6,0,0,0-.412-1.575ZM32.117,12.166c.523-.759.7-1.688.812-1.225.2.8.875,1.165.582,1.4C33.066,12.7,31.923,12.446,32.117,12.166Zm.7,62.564L31.3,72.518l1.511-2.093,1.514,2.093ZM56.5,54.185a5.427,5.427,0,0,1-5.381,5.471,5.312,5.312,0,0,1-3.459-1.276,4.433,4.433,0,0,1-1.17-2.941,3.658,3.658,0,0,1,3.374-3.813c.234.165.525-.116.933,1.161.525.234.582-.195.582-.7,0-.815-.871-1.165-1.92-1.57-.769-.3-.109-1.947-1.281-2.04-.756-.057-1.048.292-.871.814.116.455.531.036.756.176.759.466-.3,1.787-.3,1.787a5.636,5.636,0,0,0-1.967,4.149,5.815,5.815,0,0,0,.759,2.736A7.3,7.3,0,0,0,48.1,59.753a2.187,2.187,0,0,1-.848,2.465c-.7.582-1.4-.176-3.727,3.9-.118.214-.517-.626-1.394-.929A1.827,1.827,0,0,0,39.685,66.7c-.109,1.394,1.281.7,1.631-.466.446-.292.856.238,1.162.813.423.793-.466,2.679-2.849,4.193-2.156,1.338-6,.7-5.88-1.864.087-1.893,2.679-2.33,2.327-.816-.209.916,2.212,1.049,1.05-.932s-3.843-.23-4.309.932c-.465-1.161-3.142-2.911-4.305-.932s1.259,1.848,1.048.932c-.35-1.513,2.242-1.078,2.326.816.116,2.563-3.724,3.2-5.877,1.864-2.386-1.514-3.274-3.4-2.852-4.193.309-.575.715-1.105,1.164-.813.349,1.165,1.74,1.861,1.627.466a1.825,1.825,0,0,0-2.443-1.514c-.877.3-1.276,1.144-1.4.929-2.326-4.074-3.025-3.315-3.724-3.9a2.187,2.187,0,0,1-.848-2.465c.5-.564,1.086-.845,1.6-1.492a6.248,6.248,0,0,0,.7-2.852,5.64,5.64,0,0,0-1.963-4.149s-1.062-1.321-.306-1.787c.228-.141.639.279.759-.176.173-.522.105-.673-.875-.755-1.394-.116-.508,1.678-1.278,1.979-1.048.406-1.922.756-1.922,1.57,0,.5.06.929.582.7.409-1.278.7-1,.932-1.161a3.656,3.656,0,0,1,3.374,3.813,4.429,4.429,0,0,1-1.167,2.941,5.32,5.32,0,0,1-3.459,1.276,5.427,5.427,0,0,1-5.382-5.471,9.031,9.031,0,0,1,4.989-8.8,8.748,8.748,0,0,0,4.9-8.165,8.775,8.775,0,0,0-5.474-8.466c-.907-.607-.457-.743-.173-1.4a3.4,3.4,0,0,0,.116-.932c.087-1.087-.022-.571-.116-1.105a1.631,1.631,0,0,1-.234-.932c.234-2.211,2.565-1.262,2.736-.406.176.872-.135.786-.349.989-.989-.35-.643.285-.582.465.176.523.759.707,1.456.234.58-.176.819-1.038.989-.989,1.115.321,1.631-.932,1.164-.991s-1.048.526-1.454,0c-1.4-1.8-3.719-1.7-4.133-.932-.759,1.4-1.4.641-1.4.641s-1.045-.752-.932-.815c1.8-.989,2.622-1.555,5.414-4.306,1.222-1.4,4.163-5.315,4.946-5.937,2.563-2.036,7.391-5.587,10.186-3.374a1.382,1.382,0,0,1,.289,2.212c-.466.463-.786-1.138-.988-1.051-.643.119.349,1.164-.116,1.631-.434.468-1.217-.1-1.165-.58.116-1.108-2.443.989.639,1.861.659.184.643-.233,1.108-.176s1.046.642,1.861.525c.815.116,1.4-.466,1.865-.525s.449.36,1.1.176c3.085-.871.523-2.969.642-1.861.051.481-.732,1.048-1.165.58-.465-.467.523-1.512-.116-1.631-.206-.088-.523,1.513-.988,1.051a1.38,1.38,0,0,1,.289-2.212c2.792-2.213,7.624,1.338,10.186,3.374.783.622,3.724,4.539,4.946,5.937,2.79,2.751,3.318,3.142,5.414,4.306.111.062-.991.871-.991.871s-.523.409-1.338-.7c-.517-.7-2.736-.865-4.133.932-.406.526-.989-.057-1.455,0s.048,1.311,1.164.991c.171-.048.406.813.989.989.7.474,1.28.289,1.456-.234.06-.181.406-.815-.585-.465-.212-.2-.523-.116-.347-.989.17-.855,2.5-1.8,2.736.406a1.647,1.647,0,0,1-.234.932c-.094.534-.2.019-.118,1.105a3.424,3.424,0,0,0,.118.932c.281.655.735.791-.176,1.4a8.777,8.777,0,0,0-5.471,8.466,8.743,8.743,0,0,0,4.9,8.165A9.043,9.043,0,0,1,56.5,54.185Zm-13.143-14.8a8.228,8.228,0,0,0-5.014-4.225l.116-.406a11.109,11.109,0,0,0,1.631-5.823,5.877,5.877,0,0,0-.1-1.108c.234-.173,1.057.3,1.731,1.284.756,1.1,1.631.176.871-.409-.585-.45-1.162-2.616-1.222-3.025a8.629,8.629,0,0,1,.06-2.153c.26-.52,0-1.98-.7-.582s-1.69,1.048-1.69,1.048a7.163,7.163,0,0,0-4.42-3.957,6.38,6.38,0,0,1,3.482-2.8,8.113,8.113,0,0,1,2.511-.7c.29-.523.35-.872.116-.872a12.981,12.981,0,0,0-4.412,1.076,8.6,8.6,0,0,1-2.8.691,9.185,9.185,0,0,1-2.4-.088,28.743,28.743,0,0,1-3.833-.921c-1.281-.875-1.4.463-1.181.639a11.8,11.8,0,0,1,2.418,1.018,8.466,8.466,0,0,1,1.731,1.834A5.817,5.817,0,0,0,27.4,22.062a3.434,3.434,0,0,0-2.5-1.574,2.636,2.636,0,0,0-3.2,2.533,2.2,2.2,0,0,0,.809,1.666s.761.4,1.262-.005c.192-.16.025-.431.025-.639a.885.885,0,0,1,.7-1.517A1.93,1.93,0,0,1,26.3,24.5c-2.155,1.135-3.9,3.18-3.9,5.444,0,2.392,1.455,4.51,4.366,5.558V47.145s.114,1.28-1.224-.35a10.9,10.9,0,0,1-1.165-1.278C22.8,43.015,21.62,40.8,21.23,40.8c-.523,0-.988.058-.406.989a5.359,5.359,0,0,1,.813,2.854c0,.929.195,2.069-1.8,3.664-.871.7-.057,1.4.7.7a2.083,2.083,0,0,1,1.688-.582,4.8,4.8,0,0,1,3.61,1.688,1.216,1.216,0,0,1,.812,1.195,1.279,1.279,0,1,1-2.558,0c0-.337.146-.38.349-.613,0,0-.233-.756-1.1-.116-.318.23-1.049,1.048-.816,1.631.058,1.454,1.964,3.042,4.714,1.631a7.731,7.731,0,0,0,2.154,2.27c.891.559,1.8.65,1.719.894a4.587,4.587,0,0,1-2.591,2.819c-1.332.219-2.5.187-2.676-.921-.871-1.8,1.278-1.338.639-2.56a2.489,2.489,0,0,0-1.507.011,2.982,2.982,0,0,0-1.523,2.491c0,1.734,1.747,3.142,3.9,3.142a4.507,4.507,0,0,0,2.476-.712,7.762,7.762,0,0,0,2.413-1.85,12.987,12.987,0,0,0,2.97,2.213c.931.582,3.84.932,1.745-.466C33.589,58.932,34.1,56.63,34.1,56.63c2.269-.057,6.17-3.2,6.714-7.066a7.672,7.672,0,0,0,2.549-10.183ZM26.764,32.942a3.247,3.247,0,0,1-1.979-2.968,4.211,4.211,0,0,1,1.979-3.142Zm4.712-11.231v1.628a9.132,9.132,0,0,0-2.559.252A2.794,2.794,0,0,1,31.476,21.711Zm0,3.575v8.532a6,6,0,0,1-1.92-.12.813.813,0,0,1-.523-.523V25.727A10.7,10.7,0,0,1,31.476,25.286ZM31.47,54.55a3.313,3.313,0,0,1-2.264-2.868,8.274,8.274,0,0,0,2.264.349V54.55Zm.005-5.137c0,.357-1.151.249-1.864-.29a1.744,1.744,0,0,1-.58-.871v-9.14h2.443v10.3Zm.06-12.28H29.089V35.855a16.115,16.115,0,0,0,2.446.173ZM34.1,22a3.488,3.488,0,0,1,2.443,1.985,11.009,11.009,0,0,0-2.443-.525V22Zm-.009,3.329c.7,0,.591.227,1.58.287.463.171,1.535.3,1.8.7a5.063,5.063,0,0,1,.35,2.616c-.157,2.871-.639,4.016-1.57,5.238-.151.431-.632.33-1.105.233q-.522-.1-1.048-.173l-.009-8.9Zm.068,29.093V52.031a10.214,10.214,0,0,0,3.548-.7C37.645,52.208,36.073,53.792,34.155,54.418Zm3.9-5.76a6.382,6.382,0,0,1-2.506.932c-1.394-.06-1.455.13-1.455-.116V39.928a6.892,6.892,0,0,1,4.6,6.576c.014.459.115,1.8-.638,2.153Zm2.734-2.785-.048-.128a9.353,9.353,0,0,0-1.222-3.992A8.514,8.514,0,0,0,35.2,37.774a1.062,1.062,0,0,1,.327-.268c1.244-1.013,4.085.277,5.414,2.676,1.3,1.782,1.1,4.563-.152,5.69Z" transform="translate(4491.351 4556.126)" fill="#d4b66a" fill-rule="evenodd"/>
  </g>
</svg>
