<svg xmlns="http://www.w3.org/2000/svg" width="113.522" height="113.522" viewBox="0 0 113.522 113.522">
  <g id="Group_3432" data-name="Group 3432" transform="translate(-4467 -5413)">
    <circle id="Ellipse_18" data-name="Ellipse 18" cx="56.761" cy="56.761" r="56.761" transform="translate(4467 5413)" fill="#003b70"/>
    <g id="Group_3431" data-name="Group 3431" transform="translate(3.165 -0.625)">
      <path id="path891" d="M24.634,54.943l-.131.127a9.966,9.966,0,0,1-7.1,3.3c-5.272,0-9.1-3.955-9.1-9.413s3.827-9.409,9.1-9.409a9.957,9.957,0,0,1,7.1,3.312l.131.131,3.391-4.1-.091-.111a12.94,12.94,0,0,0-10.363-4.954A15.728,15.728,0,0,0,6.832,37.766,14.709,14.709,0,0,0,2.266,48.959a14.731,14.731,0,0,0,4.565,11.2A15.675,15.675,0,0,0,17.571,64.1a12.936,12.936,0,0,0,10.363-4.955l.091-.1Z" transform="translate(4481.569 5429.912)" fill="#fff"/>
      <path id="path893" d="M56.087,63.945h5.99V34.7h-5.99Z" transform="translate(4456.934 5429.511)" fill="#fff"/>
      <path id="path895" d="M95.068,49.929a8.681,8.681,0,0,1-4.421,1.462c-1.935,0-2.81-1.021-2.81-3.3V32.579h6.1V27.072h-6.1v-9.1l-5.871,3.142v5.957H76.9v5.507h5.065V49.084c0,4.5,2.664,7.569,6.64,7.649a9.441,9.441,0,0,0,5.316-1.339l.058-.043,1.442-5.638-.354.216Z" transform="translate(4447.406 5437.169)" fill="#fff"/>
      <path id="path897" d="M119.553,63.945h5.994V34.7h-5.994Z" transform="translate(4427.882 5429.511)" fill="#fff"/>
      <path id="path899" d="M96.723,14.667a29.134,29.134,0,0,0-47.7,0l-.281.4h6.9l.077-.083a23.535,23.535,0,0,1,34.3,0l.076.083H97Z" transform="translate(4460.294 5444.358)" fill="#d9261c" fill-rule="evenodd"/>
    </g>
  </g>
</svg>
