<svg xmlns="http://www.w3.org/2000/svg" width="113.522" height="113.522" viewBox="0 0 113.522 113.522">
  <g id="Group_3446" data-name="Group 3446" transform="translate(-4467.027 -4134.472)">
    <circle id="Ellipse_10" data-name="Ellipse 10" cx="56.761" cy="56.761" r="56.761" transform="translate(4467.027 4134.472)" fill="#3dae2b"/>
    <g id="Group_3421" data-name="Group 3421" transform="translate(4489.778 4154.744)">
      <path id="Path_1623" data-name="Path 1623" d="M44.092,22.392c-.015,2.9-.788,4.365-1.744,4.475-.629.07-1.35-.435-2-1.483a119.894,119.894,0,0,0-6.986-9.945s.005-.015.005-.02A46.237,46.237,0,0,1,38.528.65c3.319,6.523,5.6,14.49,5.564,21.742m-12.437-.17c2.342,2.048,2.981,3.686,2.46,4.58-.343.584-1.2.864-2.45.714a116.957,116.957,0,0,0-12.626-.7.069.069,0,0,1-.015-.02A58.588,58.588,0,0,1,9.077,11.254c7.932,1.833,16.513,5.664,22.578,10.969m-8,10.609c3.13-.644,4.843-.115,5.226.894.251.664-.061,1.548-.946,2.492a118.666,118.666,0,0,0-8.193,9.82h-.026A62.271,62.271,0,0,1,.69,44.739C6.96,39.315,15.464,34.52,23.657,32.831m3.575,13.076c1.371-2.847,2.828-3.916,3.835-3.616.66.195,1.146.974,1.325,2.228a109.816,109.816,0,0,0,2.373,11.728c-.005,0-.01.015-.015.02A65.484,65.484,0,0,1,23.012,69.333a48.458,48.458,0,0,1,4.219-23.426m11.854,4.67c-1.217-2.6-1.125-4.365-.3-4.98.542-.4,1.406-.325,2.409.255a73.111,73.111,0,0,0,9.548,4.735.029.029,0,0,0,.005.02,50.522,50.522,0,0,1,1.58,14.979,37.7,37.7,0,0,1-13.24-15.009m10.438-6.413C47,43.62,45.79,42.516,45.872,41.507c.051-.659.639-1.294,1.672-1.743a72.841,72.841,0,0,0,9.256-4.7c.005.005.01.005.015.01A38.82,38.82,0,0,1,67.5,42.626a33.2,33.2,0,0,1-17.976,1.538m2.066-12.1c-2,1.708-3.539,2-4.209,1.3a2.545,2.545,0,0,1-.194-2.467,109.339,109.339,0,0,0,2.567-10.939c.005,0,.01,0,.015,0,4.03-1.843,8.075-3.531,12.545-3.986A39.3,39.3,0,0,1,51.589,32.067" transform="translate(-0.337 -0.326)" fill="#c8cdd5"/>
      <path id="Path_1624" data-name="Path 1624" d="M38.191.331A46.209,46.209,0,0,0,33.026,15.1s-.005.015-.005.02c-.665-.844-1.544-1.863-2.312-2.787-2.895-3.516-6.091-6.808-9.323-10.04A33.349,33.349,0,0,1,38.191.331M0,27.9c4.95-.589,9.921-1.129,14.846-1.294,1.273-.04,2.716-.1,3.856-.1-.005,0-.01-.015-.015-.02A58.508,58.508,0,0,1,8.74,10.935,35.777,35.777,0,0,0,0,27.9M9.752,60.948C12.079,56.8,14.534,52.7,17.214,48.83c.711-1.029,1.514-2.208,2.189-3.117h-.026a62.082,62.082,0,0,1-19.024-1.3,35.627,35.627,0,0,0,9.4,16.533m29.7,9.35c-1.5-3.686-2.935-7.4-4.081-11.143-.317-1.039-.69-2.248-.951-3.227a.069.069,0,0,0-.015.02A65.892,65.892,0,0,1,22.675,69.014C28.255,70.6,33.67,71.352,39.454,70.3M62.61,54.185a78.778,78.778,0,0,1-9.5-2.887c-.874-.34-1.9-.694-2.705-1.034a.029.029,0,0,0,.005.02,50.506,50.506,0,0,1,1.58,14.974A34.865,34.865,0,0,0,62.61,54.185m4.316-26.807a85.926,85.926,0,0,1-8.044,5.844c-.782.489-1.677,1.084-2.419,1.523.005,0,.01,0,.015.01a38.819,38.819,0,0,1,10.683,7.552,46.429,46.429,0,0,0-.235-14.929M50.95,4.911c-.235,3.876-.522,7.762-1.059,11.558-.143,1.029-.312,2.228-.476,3.172.005,0,.01,0,.015,0,4.03-1.843,8.075-3.531,12.545-3.986A34.694,34.694,0,0,0,50.95,4.911" transform="translate(0 -0.002)" fill="#fff"/>
    </g>
  </g>
</svg>
