<svg xmlns="http://www.w3.org/2000/svg" xmlns:xlink="http://www.w3.org/1999/xlink" width="113.522" height="113.522" viewBox="0 0 113.522 113.522">
  <defs>
    <linearGradient id="linear-gradient" x1="-0.574" y1="0.5" x2="3.897" y2="0.5" gradientUnits="objectBoundingBox">
      <stop offset="0" stop-color="#f80"/>
      <stop offset="1" stop-color="#ff4f00"/>
    </linearGradient>
  </defs>
  <g id="Group_3447" data-name="Group 3447" transform="translate(-4467.027 -4337.19)">
    <circle id="Ellipse_11" data-name="Ellipse 11" cx="56.761" cy="56.761" r="56.761" transform="translate(4467.027 4337.19)" fill="url(#linear-gradient)"/>
    <g id="Group_3422" data-name="Group 3422" transform="translate(4483.244 4377.735)">
      <g id="Group_1877" data-name="Group 1877" transform="translate(0.027 1.198)">
        <path id="Path_1625" data-name="Path 1625" d="M.27,12.41H1.8a1.321,1.321,0,0,1,.941.319.8.8,0,0,1,.231.576v.01a.87.87,0,0,1-.57.833c.426.129.771.376.771.869v.01c0,.617-.52.982-1.306.982H.27Zm1.465,1.6c.488,0,.827-.221.827-.643v-.01c0-.355-.283-.586-.8-.586H.671v1.239H1.735Zm.144,1.63c.545,0,.884-.242.884-.643v-.01c0-.391-.329-.617-.956-.617H.671v1.27Z" transform="translate(-0.27 -12.348)" fill="#fff"/>
        <path id="Path_1626" data-name="Path 1626" d="M61.779,12.15h.381l1.64,3.625h-.437l-.421-.951H60.982l-.426.951H60.14Zm1,2.309-.817-1.835-.822,1.835Z" transform="translate(-54.063 -12.114)" fill="#fff"/>
        <path id="Path_1627" data-name="Path 1627" d="M129.53,12.41h.381l2.268,2.885V12.41h.4v3.6h-.324l-2.324-2.951v2.951h-.4v-3.6Z" transform="translate(-116.409 -12.348)" fill="#fff"/>
        <path id="Path_1628" data-name="Path 1628" d="M194.31,13.672v-.01a1.814,1.814,0,0,1,1.82-1.862,1.876,1.876,0,0,1,1.4.57l-.278.3a1.562,1.562,0,0,0-1.131-.493,1.411,1.411,0,0,0-1.394,1.476v.01a1.42,1.42,0,0,0,1.394,1.486,1.562,1.562,0,0,0,1.162-.52l.267.262a1.874,1.874,0,0,1-1.439.632A1.8,1.8,0,0,1,194.31,13.672Z" transform="translate(-174.614 -11.8)" fill="#fff"/>
        <path id="Path_1629" data-name="Path 1629" d="M257.02,13.672v-.01a1.835,1.835,0,1,1,3.671-.011v.01a1.835,1.835,0,1,1-3.671.011Zm3.249,0v-.01a1.432,1.432,0,0,0-1.419-1.486,1.414,1.414,0,0,0-1.409,1.476v.01a1.431,1.431,0,0,0,1.419,1.486A1.415,1.415,0,0,0,260.269,13.672Z" transform="translate(-230.958 -11.8)" fill="#fff"/>
      </g>
      <g id="Group_1878" data-name="Group 1878">
        <path id="Path_1630" data-name="Path 1630" d="M335.17,2.954C337.095,1.97,339.023.995,340.941,0c.019,2.9,0,5.793,0,8.687,2.412.015,4.823.007,7.231,0-.011,1.777-.008,3.55,0,5.323-2.408,0-4.819-.007-7.227,0,.015,2.664-.011,5.327,0,7.991a2.406,2.406,0,0,0,1.365,2.41c2.021.872,4.233.071,6.07-.857.732,1.587,1.568,3.132,2.228,4.757a14.169,14.169,0,0,1-10.755,1.289c-3.128-.976-4.7-4.261-4.681-7.272Q335.161,12.641,335.17,2.954Z" transform="translate(-301.148)" fill="#fff"/>
        <path id="Path_1631" data-name="Path 1631" d="M491.481,81.247c3.409-.779,7.416-.7,10.307,1.445,2.619,2.012,3.348,5.465,3.367,8.549-3.217,1.557-6.487,3-9.677,4.611-.921-1.505-1.7-3.088-2.542-4.634,2.052-1.017,4.141-1.974,6.139-3.085.077-1.08-1.1-1.684-2.024-1.9-1.9-.41-4.433-.1-5.345,1.814a9.655,9.655,0,0,0-.311,6.217,4.269,4.269,0,0,0,3.9,2.984,28.065,28.065,0,0,0,7.857-.808c.572,1.669,1.074,3.36,1.7,5.01a30.644,30.644,0,0,1-10.31,1.091c-2.864-.186-5.885-1.263-7.557-3.65-2.12-2.991-2.071-6.847-1.664-10.308A8.549,8.549,0,0,1,491.481,81.247Z" transform="translate(-435.857 -72.593)" fill="#fff"/>
        <path id="Path_1632" data-name="Path 1632" d="M712.693,81.924a29.3,29.3,0,0,1,13.543-.462v.052q-.851,2.57-1.733,5.126a15.32,15.32,0,0,0-6.047-.31c0,5.294,0,10.583,0,15.872q-2.887,0-5.771,0Q712.7,92.064,712.693,81.924Z" transform="translate(-640.348 -72.667)" fill="#fff"/>
        <path id="Path_1633" data-name="Path 1633" d="M0,85.6c1.937-.015,3.872-.011,5.809,0q.006,10.421,0,20.842-2.905.011-5.813,0Z" transform="translate(0 -76.9)" fill="#fff"/>
        <path id="Path_1634" data-name="Path 1634" d="M109.05,102.288c1.952.015,3.9.011,5.851,0q-.006-7.924,0-15.85c1.86-.13,3.816-.428,5.617.19a2.932,2.932,0,0,1,1.944,2.849c.026,4.269,0,8.542.008,12.811,1.92.011,3.842.007,5.759,0-.015-4.023,0-8.046,0-12.069a9.569,9.569,0,0,0-1.955-6.213,9.061,9.061,0,0,0-6.8-3.021,44.375,44.375,0,0,0-10.412.987Z" transform="translate(-97.981 -72.755)" fill="#fff"/>
      </g>
    </g>
  </g>
</svg>
